<svg xmlns="http://www.w3.org/2000/svg" width="50" height="37.892" viewBox="0 0 50 37.892">
  <g id="logo" transform="translate(0)">
    <path d="M492.865,198h8.662v23.3h-.152c-.608-2.178-1.469-4.458-2.482-7.447Zm-1.723,11.854h-.152v25.633h10.082l-7.345-18.338C492.712,214.515,491.547,211.171,491.142,209.854Zm-12.361,13.475c0,4.66-.962,6.586-3.7,6.586-2.786,0-3.749-1.925-3.749-6.687V198h-7.092v25.684c0,7.786,2.843,12.133,10.5,12.205l0,0h10.681V198h-6.636ZM507.15,198v37.487h7.092V198Z" transform="translate(-464.242 -198)" fill="#111"/>
  </g>
</svg>
