<svg xmlns="http://www.w3.org/2000/svg" width="120" height="90.941"
     viewBox="0 0 120 90.941">
    <defs>
        <clipPath id="a">
            <rect width="120" height="90.942" fill="none"/>
        </clipPath>
    </defs>
    <g clip-path="url(#a)">
        <path d="M532.936,198h20.788v55.926h-.364c-1.459-5.227-3.527-10.7-5.957-17.872ZM528.8,226.449h-.366v61.519h24.2L535,243.956C532.571,237.635,529.774,229.61,528.8,226.449ZM499.135,258.79c0,11.185-2.31,15.806-8.875,15.806-6.687,0-9-4.621-9-16.049V198H464.242v61.641c0,18.688,6.822,29.12,25.194,29.292l-.008.008h25.635V198H499.135ZM567.221,198v89.968h17.021V198Z"
              transform="translate(-464.242 -198)" fill="#fff"/>
    </g>
</svg>