<svg xmlns="http://www.w3.org/2000/svg" width="80.094" height="60.699" viewBox="0 0 80.094 60.699">
    <path d="M510.092,198h13.875v37.328h-.243c-.974-3.489-2.354-7.141-3.976-11.929Zm-2.759,18.989h-.244V258.05h16.15l-11.767-29.376C509.848,224.455,507.982,219.1,507.333,216.989Zm-19.8,21.586c0,7.465-1.542,10.55-5.924,10.55-4.463,0-6.006-3.084-6.006-10.712V198h-11.36v41.143c0,12.473,4.554,19.436,16.816,19.551l-.005.005h17.11V198H487.532ZM532.975,198v60.05h11.361V198Z"
          transform="translate(-464.242 -198)" fill="#b6bfc4"/>
</svg>