<svg xmlns="http://www.w3.org/2000/svg" width="1440" height="300"
     viewBox="0 0 1440 300">
    <defs>
        <clipPath id="a">
            <rect width="1440" height="300" transform="translate(0 1800)" fill="#fff"/>
        </clipPath>
    </defs>
    <g transform="translate(0 -1800)" clip-path="url(#a)">
        <g transform="matrix(0.996, -0.087, 0.087, 0.996, -3624.457, 5537.683)" opacity="0.03">
            <path d="M4208.776-3268.505c0,40.926-79.662,65.919-121.523,65.762-6.405,14.215-10.466,26.24-10.466,33.428a2.344,2.344,0,0,1-2.5,2.655c-4.375,0-12.651-6.561-12.651-14.84,0-13.589,49.826-93.252,76.381-133.083a212.352,212.352,0,0,0-41.549-4.375c-27.962,0-50.768,6.719-50.768,21.244a1.311,1.311,0,0,1-1.4,1.406c-2.5,0-7.5-4.062-7.5-9.684,0-16.245,27.8-25.149,61.074-25.149a197.091,197.091,0,0,1,47.327,5.78c9.062-13.277,9.062-13.277,12.183-13.277,4.376,0,9.529,5,9.529,7.029,0,1.094-5.622,6.56-8.434,10.151C4186.751-3311.615,4208.776-3294.277,4208.776-3268.505Zm-7.81-3.746c0-18.121-22.335-31.554-49.985-39.208-18.119,25.148-43.111,65.916-59.043,98.563C4131.77-3217.9,4200.967-3247.1,4200.967-3272.251Z"
                  transform="translate(-0.002 0)"/>
            <path d="M4280.826-3210.691c1.563,0,3.281,2.5,3.281,4.373a2.019,2.019,0,0,1-.625,1.563c-3.595,3.436-31.242,30.3-41.238,30.3-5.935,0-11.246-5.623-11.246-12.184,0-9.372,17.493-39.206,23.587-45.454a5.2,5.2,0,0,1,3.593-1.405c4.685,0,10.309,5,10.309,7.026,0,.313,0,.47-.156.627-4.529,4.527-22.337,33.9-22.337,40.3,0,.782.315,1.25.936,1.25,4.375,0,28.431-21.4,32.959-25.929A1.349,1.349,0,0,1,4280.826-3210.691Zm.468-67.949c6.247,0,12.965,8.437,12.965,12.652a2.1,2.1,0,0,1-2.34,2.188c-4.688,0-15.936,13.277-15.936,17.025,0,1.25-1.093,1.875-2.5,1.875-2.968,0-7.343-2.345-7.343-5.623,0-7.03,5.936-21.558,10.311-25.929A6.572,6.572,0,0,1,4281.294-3278.64Z"
                  transform="translate(-42.526 -13.138)"/>
            <path d="M4421.981-3257.13c0,2.655-.623,4.843-1.715,4.843.624,0-4.843-2.657-18.59-3.126-17.8,27.8-40.3,67.793-40.3,73.415,0,.469.155.626.468.626,5.937,0,38.583-31.554,38.9-31.554,1.559,0,3.121,2.344,3.121,4.062a2.133,2.133,0,0,1-.624,1.718c-3.436,3.593-34.521,35.614-44.518,35.614-5.937,0-11.25-4.062-11.25-10.62,0-7.5,16.246-36.4,32.026-62.17-27.181,30.3-65.138,68.885-82.948,68.885-8.587,0-16.554-6.561-16.554-14.838,0-15,27.957-49.985,40.769-49.985,7.967,0,13.434,6.4,13.434,10.934,0,8.437-7.655,22.493-14.372,22.493-4.374,0-7.811-4.218-7.811-6.4,0-.781.468-1.406,1.563-1.406,4.687,0,12.341-15,12.341-18.589,0-.468-.155-.779-.471-.779-4.216,0-30.458,31.708-30.458,44.518,0,3.122,1.56,5.154,5.781,5.154,13.274,0,52.17-40.77,79.348-71.073-22.8.782-47.954,3.749-53.265,9.062a2.931,2.931,0,0,1-2.029,1.093c-1.095,0-1.874-1.406-1.874-3.125a5.143,5.143,0,0,1,1.406-3.748c5.937-5.779,39.2-11.87,64.979-13.746,13.277-15,18.9-22.96,22.026-22.96,4.216,0,8.9,4.839,8.9,7.026,0,.783-6.875,8.437-11.559,15.465,5.777.312,10,1.094,11.4,2.656C4421.517-3262.285,4421.981-3259.629,4421.981-3257.13Z"
                  transform="translate(-53.257 -10.905)"/>
            <path d="M4508.142-3199.166c1.406,0,3.124,2.343,3.124,4.219a2.349,2.349,0,0,1-.625,1.717c-3.437,3.438-31.083,30.3-41.081,30.3-6.405,0-12.81-5.622-12.81-12.183,0-3.593,2.033-10,5-17.027-14.056,16.558-30.768,35.146-36.705,35.146-7.186,0-11.247-5.156-11.247-12.185,0-9.371,20.931-42.485,27.023-48.734a5.5,5.5,0,0,1,3.591-1.4c4.217,0,8.905,5,8.905,7.028,0,.312,0,.468-.157.625-4.531,4.529-24.836,35.458-24.836,43.111,0,1.093.468,1.718,1.406,1.718,3.123,0,39.05-45.454,47.795-54.2a4.506,4.506,0,0,1,3.283-1.406c3.905,0,8.122,5.155,8.122,7.342a1.156,1.156,0,0,1-.158.78c-4.372,4.375-15.619,31.555-15.619,39.363,0,1.406.312,2.187,1.093,2.187,4.376,0,28.273-21.4,32.8-25.93A1.417,1.417,0,0,1,4508.142-3199.166Z"
                  transform="translate(-82.556 -25.446)"/>
            <path d="M4591.045-3201.932c1.409,0,3.126,2.343,3.126,4.219a2.007,2.007,0,0,1-.622,1.562c-3.437,3.593-31.086,30.3-41.24,30.3-5.933,0-11.246-5.625-11.246-12.186,0-8.123,14.059-23.9,14.059-28.585,0-2.028-3.28-2.812-7.342-3.437-20.147,21.869-24.679,22.494-24.366,22.494-2.032,0-4.218-1.72-4.218-3.28,0-.47,5.468-5,20.773-20.62-5.935-1.093-11.4-2.967-11.4-7.965,0-6.716,13.9-19.213,24.841-19.213,6.245,0,8.744,2.186,8.744,5.468,0,4.373-4.216,10.932-9.683,17.648,6.247,2.031,13.744,4.375,13.744,11.872,0,3.748-10,21.869-10,26.712,0,.781.155,1.249.777,1.249,4.376,0,28.433-21.244,32.962-25.773A1.416,1.416,0,0,1,4591.045-3201.932Zm-71.225,9.842h0Zm26.242-25.774c5.936-6.091,10.466-11.559,10.466-13.589,0-.625-.312-.937-1.1-.937-1.559,0-12.181,7.653-12.181,10.934C4543.252-3219.894,4544.345-3218.646,4546.063-3217.865Z"
                  transform="translate(-105.637 -21.898)"/>
            <path d="M4667.673-3198.932c1.562,0,3.123,2.189,3.123,4.062a2.351,2.351,0,0,1-.623,1.72c-5.783,5.779-34.99,35.458-59.982,35.458a15,15,0,0,1-15-15c0-14.993,28.114-52.95,40.768-52.95,7.965,0,13.435,6.561,13.435,10.934,0,10.621-17.339,36.4-37.8,39.363,0,.468-.154.936-.154,1.405,0,3.594,1.874,5.779,6.093,5.779,16.4,0,44.047-25.461,49.047-30.3A1.692,1.692,0,0,1,4667.673-3198.932Zm-52.642,13.435c12.653-2.186,26.088-27.8,26.088-32.8,0-.625-.159-.938-.469-.938C4637.368-3219.236,4621.907-3200.336,4615.031-3185.5Z"
                  transform="translate(-122.28 -24.744)"/>
            <path d="M4751.811-3195.5a1.523,1.523,0,0,1-1.716,1.561c-8.44,0-25.462,6.874-40.46,14.841,2.656,3.28,4.533,6.715,4.533,9.841,0,11.87-21.088,21.086-29.369,21.086-5.935,0-12.807-6.247-12.807-11.715,0-6.406,10-13.746,22.65-20.463-5-5.935-10.936-13.119-10.936-18.431,0-9.373,23.43-30.46,34.053-30.46,7.964,0,13.745,6.4,13.745,10.779,0,8.591-7.655,22.647-14.371,22.647-4.372,0-7.809-4.06-7.809-6.4a1.359,1.359,0,0,1,1.56-1.406c4.687,0,12.653-14.37,12.653-17.65,0-.312-.156-.625-.468-.625-8.123,0-26.4,20.619-26.4,25.931,0,2.5,3.748,6.4,7.809,10.776,17.651-8.123,36.865-14.214,42.02-14.214C4749.78-3199.4,4751.811-3197.062,4751.811-3195.5Zm-51.858,21.711c-10.935,6.405-19.21,12.5-19.21,15.153,0,.312.152.312.623.312,3.28,0,19.993-7.969,19.993-12.653A7.559,7.559,0,0,0,4699.952-3173.789Z"
                  transform="translate(-139.097 -23.956)"/>
            <path d="M4956.56-3288.637c4.218,0,8.9,4.841,8.9,7.028a.929.929,0,0,1-.159.625c-7.185,7.029-22.648,31.083-37.8,57.169,3.592,0,5.15,3.592,5.15,9.216,0,5.937-1.718,14.057-4.525,22.962,8.9,0,25.3-15.309,30.926-20.619a1.353,1.353,0,0,1,.938-.467c1.562,0,3.278,2.341,3.278,4.217a2.355,2.355,0,0,1-.623,1.717c-3.594,3.438-23.9,24.836-38.113,24.991-9.529,24.057-25.929,49.36-40.3,49.36-6.716,0-12.808-4.686-12.808-12.185,0-8.435,29.989-60.605,53.732-99.342-13.431,15.62-29.21,32.489-44.205,42.955-7.027,13.121-20.308,29.679-33.9,29.679-12.027,0-16.87-6.562-16.87-13.9,0-4.218,4.843-14.526,8.436-19.681a13.367,13.367,0,0,1-.78-4.687c0-10.622,18.744-24.366,29.991-24.366s18.43,10.622,18.43,18.741a11.69,11.69,0,0,1-.311,1.876c27.49-23.74,60.761-67.479,67.165-73.881A4.833,4.833,0,0,1,4956.56-3288.637Zm-97.47,97.625c-1.1,0-2.187.156-3.28.156a15.763,15.763,0,0,1-9.528-3.437c-1.719,4.216-3.125,9.059-3.125,12.185,0,2.028.47,3.278,1.874,3.278C4848.155-3178.83,4853.622-3183.984,4859.09-3191.012Zm-11.872-17.808c0,6.4,4.843,10.622,11.559,10.622a15.159,15.159,0,0,0,6.092-1.25c5.779-9.059,10.622-18.743,10.622-23.586,0-2.031-.781-3.28-2.655-3.28C4860.809-3226.314,4847.218-3215.067,4847.218-3208.82Zm68.261,24.057a16.6,16.6,0,0,1-5.157-8.592c-12.649,23.587-22.334,43.892-22.334,49.514,0,1.095.311,1.563.936,1.563C4893.142-3142.279,4906.105-3164.458,4915.479-3184.763Zm1.872-20a15.342,15.342,0,0,0,2.814,9.216c3.436-8.592,5.776-15.776,5.776-19.684,0-1.872-.468-2.965-1.719-2.965C4922.04-3214.443,4917.351-3208.195,4917.351-3204.758Z"
                  transform="translate(-173.74 -10.95)"/>
            <path d="M5300.687-3338.638c4.531,0,9.682,5,9.682,7.029,0,.313,0,.468-.152.624-21.867,21.869-91.062,141.676-91.062,162.762a2.346,2.346,0,0,1-2.5,2.655c-4.375,0-12.653-6.56-12.653-14.84,0-9.06,36.548-70.758,64.2-114.181-41.7,47.639-102.936,117.774-123.085,117.774-8.59,0-17.651-6.716-17.651-17.5,0-16.869,63.888-96.687,63.888-109.339,0-1.251-.468-1.72-2.812-1.72-18.12,0-126.678,29.678-126.678,44.675,0,2.342-.938,3.278-2.345,3.278-2.968,0-8.122-5.312-8.122-11.715,0-19.368,112.623-45.143,132.146-45.143,9.529,0,18.12,8.9,18.12,17.185,0,18.43-58.263,90.6-58.263,106.684,0,2.186.938,3.28,3.124,3.28,16.558,0,110.436-109.809,150.578-150.108A5.5,5.5,0,0,1,5300.687-3338.638Z"
                  transform="translate(-222.179 0)"/>
            <path d="M5399.741-3196.684c1.406,0,3.123,2.344,3.123,4.219a2.009,2.009,0,0,1-.625,1.563c-3.437,3.592-31.086,30.3-41.238,30.3-6.246,0-11.246-5.468-11.246-12.186,0-5.624,4.375-18.118,8.279-27.491-14.527,11.559-37.332,36.551-37.332,42.486,0,2.031-.937,2.97-2.344,2.97-3.437,0-9.371-5.468-9.371-13.435,0-5.624,15.461-42.174,24.523-42.174,4.219,0,8.9,4.842,8.9,7.027a1.177,1.177,0,0,1-.314.626,88.1,88.1,0,0,0-17.182,25.929c13.436-16.242,37.332-36.394,42.02-36.394,4.375,0,9.059,4.841,9.059,7.028a1.2,1.2,0,0,1-.311.625c-4.219,4.216-11.4,24.522-11.4,32.178,0,1.874.469,2.967,1.406,2.967,4.373,0,28.43-21.244,32.955-25.772A1.428,1.428,0,0,1,5399.741-3196.684Z"
                  transform="translate(-278.588 -27.46)"/>
            <path d="M5551.39-3186.168c0,1.095-.467,1.875-1.248,1.875-1.875,0-2.812-3.905-11.246-3.905-26.242,0-104.344,25.929-121.371,25.929-5.934,0-12.338-5.622-12.338-12.183,0-9.371,22.961-51.39,29.055-57.638a5.579,5.579,0,0,1,3.746-1.405c4.688,0,10.154,5,10.154,7.026,0-.623-28.115,40.926-28.115,54.047,0,2.344.938,3.748,3.125,3.748,11.09,0,86.064-29.833,113.555-29.833C5546.7-3198.507,5551.39-3190.073,5551.39-3186.168Zm-98.25-58.73c-2.965,0-7.344-2.345-7.344-5.623,0-10.936,9.217-28.118,15.311-28.118,6.248,0,12.809,8.437,12.809,12.652a2.1,2.1,0,0,1-2.342,2.188c-4.687,0-15.934,13.277-15.934,17.025C5455.64-3245.524,5454.546-3244.9,5453.14-3244.9Z"
                  transform="translate(-299.654 -13.138)"/>
        </g>
    </g>
</svg>