<svg xmlns="http://www.w3.org/2000/svg" width="1440" height="300"
     viewBox="0 0 1440 300">
    <defs>
        <clipPath id="a">
            <rect width="1440" height="300" transform="translate(0 1000)" fill="#fff"/>
        </clipPath>
    </defs>
    <g transform="translate(0 -1000)" clip-path="url(#a)">
        <path d="M3739.678-866.948c5.467,0,11.69,6.034,11.69,8.484,0,.377,0,.565-.189.752-26.4,26.4-109.916,171-109.916,196.453,0,2.263-1.32,3.206-3.015,3.206-5.281,0-15.272-7.918-15.272-17.912,0-10.936,44.117-85.405,77.488-137.815-50.34,57.5-124.244,142.153-148.565,142.153-10.37,0-21.3-8.107-21.3-21.117,0-20.361,77.11-116.7,77.11-131.972,0-1.51-.564-2.073-3.393-2.073-21.87,0-152.9,35.819-152.9,53.92,0,2.829-1.131,3.959-2.828,3.959-3.583,0-9.8-6.411-9.8-14.14,0-23.379,135.932-54.487,159.5-54.487,11.5,0,21.87,10.748,21.87,20.739,0,22.247-70.324,109.348-70.324,128.767,0,2.64,1.132,3.96,3.771,3.96,19.985,0,133.295-132.539,181.747-181.182A6.646,6.646,0,0,1,3739.678-866.948Zm51.454,138.194c1.7,0,3.771,2.828,3.771,5.093a2.429,2.429,0,0,1-.752,1.886c-4.149,4.335-37.52,36.573-49.774,36.573-7.542,0-13.575-6.6-13.575-14.706,0-6.787,5.278-21.867,9.993-33.182-17.534,13.952-45.061,44.118-45.061,51.282,0,2.451-1.13,3.583-2.828,3.583-4.149,0-11.312-6.6-11.312-16.217,0-6.786,18.664-50.9,29.6-50.9,5.09,0,10.745,5.845,10.745,8.483a1.413,1.413,0,0,1-.377.753,106.305,106.305,0,0,0-20.739,31.3c16.214-19.607,45.063-43.927,50.717-43.927,5.278,0,10.934,5.843,10.934,8.484a1.434,1.434,0,0,1-.377.754c-5.09,5.089-13.763,29.6-13.763,38.837,0,2.263.566,3.583,1.7,3.583,5.279,0,34.313-25.641,39.78-31.108A1.714,1.714,0,0,1,3791.133-728.754Zm82.383-28.845c0-.565.565-.942,1.7-.942,4.148,0,14.7,5.279,14.7,16.779,0,16.591-65.987,57.127-93.135,57.127-12.632,0-20.738-7.541-20.738-16.591,0-9.238,19.984-45.437,27.338-52.978a6.281,6.281,0,0,1,4.335-1.7c5.655,0,12.443,6.034,12.443,8.483,0,.378,0,.567-.187.755-9.428,9.615-29.412,42.042-29.412,52.035,0,1.885.566,3.016,2.262,3.016,18.664,0,83.52-41.854,83.52-59.763a5.971,5.971,0,0,0-1.7-4.337C3873.893-756.467,3873.516-757.032,3873.516-757.6Zm-47.322-12.066c-3.582,0-8.86-2.828-8.86-6.786,0-13.2,11.123-33.938,18.476-33.938,7.542,0,15.459,10.181,15.459,15.273a2.529,2.529,0,0,1-2.828,2.639c-5.656,0-19.23,16.026-19.23,20.552C3829.211-770.419,3827.891-769.666,3826.194-769.666Zm-719.949-88.8c0,.377,0,.565-.19.752-14.327,14.331-45.434,60.521-70.887,103.7,2.828,2.64,3.771,6.6,3.771,9.8,0,2.83-.755,4.9-2.262,4.9-1.132,0-3.771-3.016-7.166-4.9-18.663,32.618-32.992,62.028-32.992,72.586,0,2.261-1.318,3.2-3.016,3.2-5.278,0-15.271-7.917-15.271-17.91,0-6.411,15.271-33.371,34.69-64.479a268.963,268.963,0,0,0-39.594-8.673c-55.993,50.34-113.5,101.432-132.35,101.432-13.762,0-18.664-10.371-18.664-16.214,0-2.452.754-4.337,2.263-4.337s3.015,2.828,6.6,2.828c17.157,0,69-41.287,122.546-85.593-3.582-.188-6.975-.188-10.18-.188-19.419,0-34.124,3.393-34.124,12.631,0,3.393-.942,4.9-2.074,4.9-2.828,0-7.165-6.977-7.165-14.706,0-10.936,6.6-18.852,32.238-18.852a242.4,242.4,0,0,1,36.764,3.391c56.373-46.755,111.048-92.757,125-92.757C3099.646-866.948,3106.245-861.482,3106.245-858.464Zm-86.539,96.529c20.552-32.239,43.742-66.929,58.068-86.913-20.737,14.138-55.049,44.869-91.625,77.864A261.959,261.959,0,0,1,3019.706-761.935Zm125.738,43.361c0,1.323-17.912,2.453-37.142,8.3-10.37,13.385-23.567,25.074-35.821,25.074-6.41,0-10.181-3.582-10.181-5.467,0-8.484,10.935-15.458,25.075-20.925,12.443-15.649,24.7-35.823,24.7-40.912,0-.942-.376-1.322-.943-1.322-9.425,0-59.2,63.538-59.2,72.4,0,2.264-.943,3.207-2.45,3.207-4.525,0-13.01-8.108-13.01-17.912,0-16.214,56.938-109.537,69.38-121.982a5.856,5.856,0,0,1,4.148-1.7c5.091,0,10.748,5.846,10.748,8.484a1.126,1.126,0,0,1-.19.754c-17.722,17.723-42.609,60.709-56.936,93.136,17.154-21.494,41.854-45.814,48.265-45.814,7.352,0,15.081,7.918,15.081,14.706,0,5.843-4.713,17.156-11.877,28.658,11.5-2.64,21.3-4.149,24.7-4.149C3142.426-724.041,3145.445-720.458,3145.445-718.574Zm73.9-9.613c1.885,0,3.959,2.64,3.959,4.9,0,5.846-21.681,13.2-39.4,15.649-8.862,14.329-22.814,29.223-36.954,29.223-14.516,0-20.361-8.106-20.361-16.968,0-4.9,5.845-17.344,10.181-23.565a14.106,14.106,0,0,1-.943-5.845c0-12.631,22.624-29.223,36.2-29.223s22.247,12.82,22.247,22.435c0,2.828-1.7,7.73-4.525,13.764,12.065-1.508,23.376-4.713,28.468-9.8A1.631,1.631,0,0,1,3219.343-728.187Zm-54.862,21.679a50.5,50.5,0,0,1-16.969-3.016c-2.828,5.469-5.278,13.387-5.278,18.1,0,2.451.566,3.96,2.264,3.96C3148.831-687.463,3156.938-695.949,3164.48-706.508Zm-17.346-19.04c0,5.278,10.936,8.106,24.323,8.671,5.655-9.613,9.8-18.852,9.8-23.944,0-2.451-.943-3.958-3.206-3.958C3163.537-744.778,3147.134-730.64,3147.134-725.547Zm245.277-55.617c0,3.393-1.507,6.22-3.582,6.22-1.13,0-5.657-4.713-21.87-5.278-21.492,33.747-48.829,82.2-48.829,88.988,0,.564.187.753.565.753,7.353,0,46.568-37.894,46.944-37.894,1.886,0,3.771,2.639,3.771,4.9a2.832,2.832,0,0,1-.753,2.072c-4.148,4.337-41.479,42.8-53.734,42.8-7.162,0-13.572-4.713-13.572-12.819,0-6.788,11.311-28.468,25.074-52.224-23.189,28.469-47.887,55.617-59.953,55.617-7.542,0-15.271-6.6-15.271-14.894a30.827,30.827,0,0,1,.942-6.6c-13.951,14.707-30.73,30.919-37.9,30.919-8.672,0-13.573-6.408-13.573-14.7,0-11.313,25.262-51.469,32.615-58.822a6.645,6.645,0,0,1,4.336-1.7c5.09,0,10.748,5.844,10.748,8.3,0,.377,0,.567-.189.755-5.468,5.467-29.976,42.984-29.976,52.222,0,1.322.565,2.075,1.7,2.075,3.77,0,36.765-37.331,47.321-47.887a6.3,6.3,0,0,1,4.337-1.7c5.656,0,12.442,6.033,12.442,8.483,0-.942-11.311,20.361-11.311,27.527,0,1.507.377,2.26,1.319,2.26,6.222,0,42.42-43.927,69.757-77.863-29.411,1.885-64.479,8.106-72.962,16.59a2.547,2.547,0,0,1-1.885.942c-1.7,0-2.828-2.448-2.828-5.088a6.882,6.882,0,0,1,1.7-4.713c7.352-7.353,52.222-16.4,85.4-19.419,19.8-25.075,21.116-28.657,25.264-28.657,5.091,0,10.746,5.843,10.746,8.483,0,.942-8.3,10.558-14.14,19.042,7.163.189,12.254.942,13.952,2.64A13.285,13.285,0,0,1,3392.411-781.165Z"
              transform="matrix(0.996, -0.087, 0.087, 0.996, -2599.015, 2136.678)" fill="#087c98" opacity="0.06"/>
    </g>
</svg>