<svg xmlns="http://www.w3.org/2000/svg" xmlns:xlink="http://www.w3.org/1999/xlink" width="1440" height="300" viewBox="0 0 1440 300"><defs><clipPath id="a"><rect width="1440" height="300" transform="translate(0 2930)" fill="#e8faff"/></clipPath></defs><g transform="translate(0 -2930)" clip-path="url(#a)"><g transform="matrix(0.996, -0.087, 0.087, 0.996, -3517.369, 6312.225)" opacity="0.06"><path d="M4038-2893.274c1.323,0,2.646,1.852,2.646,3.44a1.988,1.988,0,0,1-.529,1.454c-15.476,15.477-42.858,39.683-80.953,39.683-18.784,0-38.361-11.641-38.361-29.762,0-18.783,32.276-38.625,59.657-45.768-10.847-3.836-19.048-10.45-19.048-18.255,0-19.444,44.181-48.149,66.007-48.149,13.359,0,21.561,9.921,21.561,17.593,0,16.667-22.222,40.609-29.9,40.609-5.423,0-8.2-4.5-8.2-7.143,0-1.19.529-2.117,1.587-2.117,6.614,0,26.456-24.471,26.456-36.508,0-3.836-2.117-6.349-7.275-6.349-19.048,0-54.762,28.7-54.762,45.636,0,7.011,6.217,11.905,22.355,11.905,3.572,0,6.879,4.365,6.879,7.01a1.986,1.986,0,0,1-2.249,2.116c-35.847,0-70.769,30.424-70.769,48.546,0,7.54,6.218,12.963,21.165,12.963,37.038,0,66.536-20.371,82.806-36.509A1.43,1.43,0,0,1,4038-2893.274Z" fill="#087c98"/><path d="M4122.646-2881.505c0-.662.662-.927,1.721-.927,3.175,0,9.92,3.44,9.92,10.186,0,11.375-34.657,50.529-43.519,50.529-6.085,0-12.169-4.365-12.169-10.317,0-7.937,16.137-36.509,21.3-41.667a4.017,4.017,0,0,1,3.042-1.323c3.572,0,7.408,4.1,7.408,5.952a.792.792,0,0,1-.133.529c-3.836,3.836-18.916,31.218-18.916,37.3q0,1.19.794,1.19c3.307,0,32.805-34.79,32.805-46.562a3.727,3.727,0,0,0-.927-2.778C4123.044-2880.315,4122.646-2880.976,4122.646-2881.505Z" transform="translate(-53.432 -36.636)" fill="#087c98"/><path d="M4218.175-2855.012c1.323,0,2.646,1.852,2.646,3.44a1.991,1.991,0,0,1-.53,1.454c-4.895,4.894-29.63,30.027-50.795,30.027a12.7,12.7,0,0,1-12.7-12.7c0-12.7,23.81-44.842,34.524-44.842,6.745,0,11.375,5.556,11.375,9.259,0,9-14.682,30.821-32.011,33.334,0,.4-.131.794-.131,1.19,0,3.043,1.586,4.9,5.158,4.9,13.889,0,37.3-21.562,41.535-25.662A1.435,1.435,0,0,1,4218.175-2855.012Zm-44.578,11.376c10.715-1.852,22.091-23.545,22.091-27.778q0-.794-.4-.794C4192.513-2872.208,4179.417-2856.2,4173.6-2843.636Z" transform="translate(-79.91 -38.262)" fill="#087c98"/><path d="M4295.042-2859.546c1.191,0,2.646,1.984,2.646,3.572a1.7,1.7,0,0,1-.529,1.323c-2.91,3.042-26.323,25.661-34.921,25.661-5.026,0-9.525-4.762-9.525-10.317,0-6.878,11.905-20.239,11.905-24.207,0-1.719-2.778-2.38-6.216-2.909-17.064,18.518-20.9,19.047-20.636,19.047-1.72,0-3.572-1.455-3.572-2.778,0-.4,4.63-4.233,17.593-17.461-5.026-.925-9.656-2.513-9.656-6.746,0-5.688,11.773-16.27,21.032-16.27,5.292,0,7.408,1.852,7.408,4.63,0,3.7-3.571,9.259-8.2,14.948,5.291,1.719,11.641,3.7,11.641,10.052,0,3.175-8.466,18.519-8.466,22.62,0,.661.132,1.058.662,1.058,3.7,0,24.074-17.989,27.91-21.826A1.2,1.2,0,0,1,4295.042-2859.546Zm-60.318,8.334h0Zm22.223-21.826c5.026-5.159,8.862-9.789,8.862-11.509,0-.528-.264-.793-.925-.793-1.323,0-10.317,6.481-10.317,9.259A3.48,3.48,0,0,0,4256.947-2873.038Z" transform="translate(-106.117 -33.86)" fill="#087c98"/><path d="M4382.471-2853.362c0,.794-.265,1.323-.794,1.323-7.011,0-18.519,5.291-30.557,12.7-12.169,24.074-26.19,49.471-38.1,49.471-7.541,0-12.832-5.82-12.832-11.772,0-8.466,18.519-25,38.229-37.832,3.439-6.217,7.011-12.7,10.186-18.518-10.848,12.566-24.472,26.853-31.085,26.853-6.086,0-9.525-4.1-9.525-9,0-4.364,12.7-26.719,17.858-31.878a4.662,4.662,0,0,1,3.042-1.19c3.571,0,7.539,4.233,7.539,5.952,0,.265,0,.4-.132.529-3.968,3.969-15.212,23.017-15.212,26.72,0,.4.132.529.4.529,2.646,0,35.847-38.492,43.254-45.767a3.621,3.621,0,0,1,2.91-1.19c3.042,0,6.482,3.306,6.482,5.423a1.2,1.2,0,0,1-.4.926c-4.365,4.365-10.45,16.27-17.329,30.159,9.127-4.629,17.2-7.672,22.223-7.672C4381.148-2857.595,4382.471-2854.949,4382.471-2853.362Zm-73.414,56.879c3.7,0,11.9-12.3,21.032-28.042-12.964,10.319-22.885,20.635-22.885,25.662a2.692,2.692,0,0,0,.794,1.984A1.5,1.5,0,0,0,4309.058-2796.483Z" transform="translate(-128.464 -35.282)" fill="#087c98"/><path d="M4484.587-2940.63c3.571,0,7.54,4.1,7.54,5.952a.8.8,0,0,1-.132.53c-10.451,10.45-45.636,69.71-45.636,78.969q0,1.192.793,1.191c4.233,0,28.174-22.355,28.7-22.355,1.323,0,2.778,1.984,2.778,3.572a1.988,1.988,0,0,1-.529,1.455c-3.042,2.91-26.324,25.662-34.921,25.662-5.027,0-9.524-4.762-9.524-10.318,0-1.587,1.588-5.291,4.1-10.318-9.921,11.376-22.884,25-29.233,25-5.158,0-7.937-4.5-7.937-10.317,0-13.625,24.868-45.9,40.08-45.9,5.291,0,9.259,2.911,10.715,6.218,12.434-21.429,27.381-45.106,30.291-48.149A4.1,4.1,0,0,1,4484.587-2940.63Zm-36.905,55.821a1.194,1.194,0,0,1-.132-.661c0-1.19-1.984-5.424-4.233-5.424-7.671,0-32.408,36.774-32.408,40.478a.285.285,0,0,0,.265.264C4414.348-2850.152,4442.391-2879.385,4447.682-2884.809Z" transform="translate(-162.459 -16.93)" fill="#087c98"/><path d="M4648.165-2857.43c0,.662-.265,1.19-.794,1.19-6.878,0-18.519,5.424-30.556,12.831-12.038,24.074-26.059,49.34-37.964,49.34-7.672,0-12.963-5.688-12.963-11.641,0-8.6,18.651-25,38.36-37.832,3.439-6.349,6.878-12.7,10.053-18.518-10.714,12.434-24.472,26.853-31.084,26.853-6.085,0-9.525-4.1-9.525-9,0-1.323,1.19-4.233,2.778-7.937-7.937,7.54-16.535,14.154-23.678,14.154-8.466,0-11.112-5.82-11.112-12.567a31.509,31.509,0,0,1,1.456-9.26c-12.037,9.921-31.879,32.8-40.212,32.8-5.158,0-7.937-4.365-7.937-10.317,0-13.492,26.191-45.768,41.4-45.768,6.747,0,11.376,4.63,11.376,9.127a3.675,3.675,0,0,1-3.307,3.836c-1.719,0-1.323-5.026-5.424-5.026-7.672,0-33.73,35.582-33.73,39.022a.285.285,0,0,0,.265.264c3.175,0,37.832-34.128,45.107-34.128,3.968,0,8.73,4.233,8.73,5.953,0-.4-4.233,8.995-4.233,14.418,0,1.984.529,3.307,1.587,3.307,6.482,0,27.118-22.09,32.938-28.175a4.98,4.98,0,0,1,3.835-2.117c3.571,0,7.408,4.1,7.408,5.953a.793.793,0,0,1-.132.529c-3.968,3.968-14.021,22.223-14.021,25.927,0,.4.132.661.4.661,2.646,0,35.847-38.492,43.255-45.9a4.1,4.1,0,0,1,2.911-1.191c3.174,0,6.481,3.439,6.481,5.423a1.5,1.5,0,0,1-.4,1.059c-4.365,4.365-10.318,16.271-17.2,30.027,8.995-4.63,17.063-7.54,22.09-7.54C4646.842-2861.663,4648.165-2859.017,4648.165-2857.43Zm-73.282,56.879c3.7,0,11.905-12.3,20.9-28.042-12.963,10.185-22.752,20.5-22.752,25.662a2.694,2.694,0,0,0,.794,1.984A1.5,1.5,0,0,0,4574.882-2800.551Z" transform="translate(-194.422 -33.86)" fill="#087c98"/><path d="M4842.81-2881.505c0-.662.661-.927,1.72-.927,3.175,0,9.92,3.44,9.92,10.186,0,11.375-31.085,47.488-39.948,47.488-6.084,0-12.169-4.365-12.169-10.318,0-2.91,1.455-7.937,3.439-13.1-8.995,12.3-20.371,26.455-25.663,26.455-6.084,0-9.523-3.7-9.523-8.994,0-7.937,17.726-37.3,22.885-42.594a4.661,4.661,0,0,1,3.042-1.19c3.572,0,7.541,4.233,7.541,5.953,0,.265,0,.4-.133.529-7.275,7.275-20.238,32.938-20.238,37.3,0,.4.132.662.4.662,2.646,0,23.546-30.557,30.954-37.964a3.753,3.753,0,0,1,2.91-1.323c3.572,0,7.672,4.234,7.672,5.953a.685.685,0,0,1-.265.529c-3.572,3.572-10.847,21.032-10.847,27.381,0,1.456.4,2.382,1.323,2.382,3.307,0,29.366-31.615,29.366-43.255a4.466,4.466,0,0,0-1.058-3.042C4843.207-2880.315,4842.81-2880.976,4842.81-2881.505Z" transform="translate(-287.741 -36.636)" fill="#087c98"/><path d="M4988.345-2905.444c0,2.513-.661,4.629-1.851,4.629.662,0-7.275-3.835-19.577-4.232-14.153,22.885-29.5,50.662-29.5,54.763,0,.4.133.529.4.529,5.159,0,32.8-26.588,33.069-26.588,1.19,0,2.646,1.984,2.646,3.572a1.7,1.7,0,0,1-.529,1.323c-3.042,3.042-29.233,30.027-37.832,30.027-5.027,0-9.524-3.307-9.524-8.994,0-5.027,9.126-22.223,19.709-40.08-16.8,20.37-35.054,40.344-43.916,40.344-6.35,0-10.053-3.175-10.053-9.524,0-6.614,10.317-23.677,13.228-26.588a4.411,4.411,0,0,1,3.042-1.19c3.968,0,8.731,4.232,8.731,5.953,0-.927-11.642,17.46-11.642,22.09,0,.661.132.925.662.925,3.837,0,24.207-23.677,42.329-45.5a30.524,30.524,0,0,0-8.862,3.042c-.4,0-.529-.661-.529-1.455,0-5.688,3.307-7.011,15.608-9,8.466-10.186,15.874-19.313,19.974-24.207,3.042-4.5,3.835-5.026,5.819-5.026,3.572,0,7.541,4.1,7.541,5.952,0,.794-8.995,11.773-15.212,21.43,4.233-.265,7.937-.4,10.583-.4C4986.758-2913.646,4988.345-2909.016,4988.345-2905.444Zm-63.757,4.365c-2.381,0-6.085-1.984-6.085-4.762,0-9.26,7.541-23.81,12.832-23.81s10.847,7.143,10.847,10.714a1.774,1.774,0,0,1-1.984,1.852c-3.969,0-13.493,11.244-13.493,14.418C4926.7-2901.608,4925.778-2901.079,4924.587-2901.079Z" transform="translate(-328.644 -16.93)" fill="#087c98"/><path d="M5071.762-2876.344c1.19,0,2.646,1.984,2.646,3.572a1.7,1.7,0,0,1-.53,1.323c-2.91,3.042-26.323,25.662-34.921,25.662-5.292,0-9.523-4.763-9.523-10.318,0-4.762,3.7-15.344,7.011-23.281-12.3,9.656-31.615,30.953-31.615,35.846,0,1.455-.662,2.116-1.587,2.116-3.042,0-9.26-6.614-9.26-13.757,0-11.375,39.948-75.53,48.678-84.26a4.1,4.1,0,0,1,2.91-1.19c3.572,0,7.54,4.1,7.54,5.952a.8.8,0,0,1-.132.53c-13.889,13.889-34,49.868-43.254,73.017,11.64-13.625,30.423-29.234,34.259-29.234,3.7,0,7.672,4.1,7.672,5.953a1,1,0,0,1-.265.529c-3.572,3.572-9.656,20.768-9.656,27.25,0,1.587.4,2.513,1.19,2.513,3.7,0,24.075-17.99,27.911-21.826A1.2,1.2,0,0,1,5071.762-2876.344Z" transform="translate(-363.383 -16.93)" fill="#087c98"/><path d="M5366.7-2990.63c3.836,0,8.2,4.233,8.2,5.952,0,.265,0,.4-.132.529-18.518,18.519-77.118,119.975-77.118,137.833a1.986,1.986,0,0,1-2.116,2.249c-3.7,0-10.714-5.556-10.714-12.566,0-7.673,30.952-59.922,54.365-96.695-35.318,40.344-87.171,99.737-104.234,99.737A14.88,14.88,0,0,1,5220-2868.405c0-14.286,54.1-81.88,54.1-92.594,0-1.059-.4-1.455-2.38-1.455-15.344,0-107.278,25.133-107.278,37.831,0,1.984-.793,2.778-1.984,2.778-2.513,0-6.878-4.5-6.878-9.921,0-16.4,95.372-38.228,111.906-38.228,8.07,0,15.345,7.54,15.345,14.55,0,15.609-49.34,76.721-49.34,90.346,0,1.852.794,2.777,2.646,2.777,14.021,0,93.52-92.99,127.516-127.118A4.659,4.659,0,0,1,5366.7-2990.63Z" transform="translate(-418.101)" fill="#087c98"/><path d="M5490.033-2851.21c1.19,0,2.646,1.984,2.646,3.572a1.7,1.7,0,0,1-.529,1.323c-2.91,3.042-26.324,25.662-34.922,25.662-5.292,0-9.523-4.63-9.523-10.319,0-4.761,3.7-15.344,7.011-23.281-12.3,9.789-31.614,30.953-31.614,35.98,0,1.719-.794,2.512-1.984,2.512-2.911,0-7.937-4.63-7.937-11.375,0-4.762,13.1-35.716,20.767-35.716,3.572,0,7.54,4.1,7.54,5.953a1,1,0,0,1-.265.529,74.56,74.56,0,0,0-14.55,21.958c11.375-13.757,31.614-30.82,35.583-30.82,3.7,0,7.672,4.1,7.672,5.952a1,1,0,0,1-.265.529c-3.571,3.572-9.656,20.768-9.656,27.25,0,1.587.4,2.512,1.19,2.512,3.7,0,24.075-17.989,27.911-21.825A1.2,1.2,0,0,1,5490.033-2851.21Z" transform="translate(-505.325 -42.46)" fill="#087c98"/><path d="M5633.189-2852.322c0,.926-.4,1.587-1.058,1.587-1.588,0-2.381-3.307-9.524-3.307-22.223,0-88.361,21.958-102.779,21.958-5.026,0-10.45-4.762-10.45-10.317,0-7.937,19.444-43.519,24.6-48.811a4.743,4.743,0,0,1,3.175-1.19c3.968,0,8.6,4.232,8.6,5.953,0-.53-23.81,34.656-23.81,45.767,0,1.984.794,3.175,2.646,3.175,9.391,0,72.885-25.265,96.165-25.265C5629.222-2862.772,5633.189-2855.629,5633.189-2852.322Zm-83.2-49.736c-2.513,0-6.217-1.984-6.217-4.762,0-9.26,7.8-23.81,12.963-23.81,5.291,0,10.847,7.143,10.847,10.715a1.775,1.775,0,0,1-1.984,1.852c-3.968,0-13.493,11.244-13.493,14.418C5552.1-2902.588,5551.178-2902.059,5549.987-2902.059Z" transform="translate(-537.898 -20.316)" fill="#087c98"/></g></g></svg>